<svg width="80" height="26" viewBox="0 0 80 26" fill="none" xmlns="http://www.w3.org/2000/svg">
<path d="M1.44873 13C1.44873 6.61487 6.66146 1.43872 13.0917 1.43872H66.908C73.3382 1.43872 78.5509 6.61487 78.5509 13C78.5509 19.3851 73.3382 24.5612 66.908 24.5612H13.0917C6.66146 24.5612 1.44873 19.3851 1.44873 13Z" fill="#FFD400"/>
<path fill-rule="evenodd" clip-rule="evenodd" d="M17.3838 12.4142L18.6982 17.0279C18.8085 17.44 19.0434 17.8088 19.3712 18.0848C19.7059 18.3722 20.1258 18.5165 20.6315 18.5165C21.1366 18.5165 21.554 18.3722 21.8837 18.0848C22.2086 17.805 22.445 17.4379 22.5642 17.0279L24.5747 10.3305C24.6369 10.1622 24.6879 9.9932 24.7302 9.82424C24.7707 9.6855 24.8068 9.53935 24.8379 9.38519C24.869 9.23103 24.8839 9.1003 24.8839 8.99054C24.8839 8.61376 24.747 8.29681 24.4739 8.03843C24.2009 7.78068 23.8482 7.65118 23.4152 7.65118C22.9816 7.65118 22.6314 7.77019 22.3639 8.00884C22.0952 8.24686 21.9042 8.5743 21.7916 8.99115L20.4766 13.9027H20.3217L19.0073 9.06515C18.8941 8.64892 18.6907 8.30914 18.3965 8.04584C18.1029 7.78314 17.7396 7.65118 17.3066 7.65118C16.8737 7.65118 16.5104 7.78314 16.2162 8.04584C15.9225 8.30914 15.7185 8.64892 15.6053 9.06515L14.2909 13.9027H14.136L12.8216 8.99115C12.7084 8.5743 12.5174 8.24686 12.2493 8.00884C11.9818 7.77019 11.631 7.65118 11.198 7.65118C10.7651 7.65118 10.4118 7.78068 10.1387 8.03843C10.0064 8.15956 9.90146 8.30708 9.83081 8.47129C9.76016 8.63549 9.72537 8.81266 9.72874 8.99115C9.72874 9.1003 9.74429 9.23164 9.77539 9.38519C9.8065 9.53935 9.84195 9.6855 9.88363 9.82424C9.92469 9.9932 9.97694 10.1622 10.0379 10.3299L12.0484 17.0279C12.1676 17.4379 12.404 17.805 12.7289 18.0848C13.0586 18.3722 13.476 18.5165 13.9817 18.5165C14.4868 18.5165 14.9067 18.3722 15.242 18.0848C15.5695 17.8086 15.8041 17.4399 15.9145 17.0279L17.2289 12.4142H17.3844H17.3838ZM35.001 14.2V11.8185C35.001 11.1833 34.8872 10.6031 34.6607 10.0771C34.4402 9.56006 34.1106 9.09581 33.6941 8.71551C33.2767 8.33319 32.7666 8.03597 32.1632 7.82261C31.5598 7.60925 30.8817 7.50195 30.1291 7.50195C29.3764 7.50195 28.6983 7.60925 28.0962 7.82261C27.4928 8.03597 26.9827 8.33319 26.5653 8.71551C26.1486 9.09565 25.819 9.55994 25.5986 10.0771C25.3716 10.6031 25.2584 11.1839 25.2584 11.8185V14.2C25.2584 14.8351 25.3716 15.4148 25.5986 15.9414C25.8188 16.4586 26.1485 16.9229 26.5653 17.3029C26.9821 17.6852 27.4922 17.9831 28.0956 18.1964C28.699 18.4092 29.377 18.5159 30.1297 18.5159C30.8824 18.5159 31.5604 18.4092 32.1632 18.1964C32.7666 17.9831 33.2767 17.6846 33.6934 17.3023C34.1102 16.9224 34.4401 16.4583 34.6607 15.9414C34.8872 15.4154 35.001 14.8351 35.001 14.2ZM31.9853 14.2C31.9853 14.8351 31.8229 15.3161 31.4982 15.6429C31.1735 15.971 30.7175 16.135 30.1297 16.135C29.5418 16.135 29.0859 15.971 28.7612 15.6435C28.4364 15.3161 28.2741 14.8351 28.2741 14.2V11.8185C28.2741 11.1833 28.4358 10.7023 28.7612 10.3749C29.0859 10.0475 29.5418 9.88344 30.1297 9.88344C30.7175 9.88344 31.1735 10.0475 31.4982 10.3749C31.8229 10.7017 31.9853 11.1839 31.9853 11.8179V14.2ZM45.5038 17.0279C45.5038 16.8793 45.4833 16.743 45.4422 16.6185C45.4045 16.5035 45.3579 16.3915 45.3029 16.2836C45.2529 16.1775 45.1907 16.0776 45.1175 15.9858L43.339 13.7535V13.6049C43.6376 13.4859 43.9057 13.3169 44.1427 13.0986C44.3493 12.9106 44.5371 12.6596 44.7076 12.3463C44.8774 12.0343 44.9626 11.6353 44.9626 11.1488C44.9678 10.6885 44.8757 10.2322 44.692 9.80944C44.5099 9.40026 44.2346 9.03849 43.8877 8.75251C43.5319 8.45529 43.0964 8.22219 42.5814 8.05323C42.0657 7.88427 41.4679 7.80041 40.7874 7.80041H37.5402C37.1067 7.80041 36.7533 7.92929 36.4802 8.18705C36.348 8.30818 36.243 8.45569 36.1724 8.6199C36.1017 8.7841 36.0669 8.96128 36.0703 9.13976V17.0279C36.0703 17.4053 36.2072 17.7222 36.4809 17.9806C36.7533 18.2384 37.1067 18.3673 37.5396 18.3673C37.9726 18.3673 38.3259 18.2378 38.599 17.9806C38.8727 17.7216 39.0095 17.4053 39.0095 17.0279V14.3486H40.2462L42.7972 17.697C42.9316 17.8863 43.0834 18.0454 43.2538 18.1742C43.4236 18.3025 43.6843 18.3673 44.0345 18.3673C44.4674 18.3673 44.8208 18.2378 45.0939 17.9806C45.3676 17.7216 45.5044 17.4053 45.5044 17.0279H45.5038ZM41.9469 11.1488C41.9469 11.4072 41.8411 11.6329 41.6302 11.8259C41.4187 12.0195 41.1376 12.1157 40.7874 12.1157H39.0089V10.1813H40.788C41.1376 10.1813 41.4187 10.2781 41.6302 10.4711C41.8417 10.6653 41.9475 10.8904 41.9475 11.1488H41.9469ZM49.3699 8.99054C49.3699 8.61438 49.233 8.29619 48.9599 8.03782C48.6869 7.78006 48.3335 7.65118 47.9006 7.65118C47.4676 7.65118 47.1143 7.78068 46.8412 8.03782C46.7091 8.15903 46.6043 8.30657 46.5337 8.47077C46.4632 8.63497 46.4285 8.8121 46.4319 8.99054V17.0279C46.4319 17.4047 46.5688 17.7222 46.8412 17.98C47.1149 18.239 47.4676 18.3673 47.9006 18.3673C48.3335 18.3673 48.6869 18.2384 48.9599 17.98C49.2336 17.7222 49.3705 17.4047 49.3705 17.0279V14.1253H50.6843L53.1588 17.6976C53.2926 17.8863 53.445 18.0448 53.6148 18.1736C53.7852 18.3031 54.0452 18.3673 54.3961 18.3673C54.829 18.3673 55.1817 18.2384 55.4554 17.98C55.7291 17.7222 55.8648 17.4047 55.8648 17.0279C55.8648 16.7301 55.8212 16.5099 55.7341 16.3656C55.6554 16.235 55.5703 16.1082 55.4791 15.9858L53.2359 12.86L55.4013 10.0327C55.4925 9.91025 55.5777 9.78348 55.6564 9.65281C55.7435 9.50914 55.7876 9.28899 55.7876 8.99054C55.7876 8.61438 55.6508 8.29619 55.3777 8.03782C55.1046 7.78006 54.7513 7.65118 54.3183 7.65118C53.9681 7.65118 53.7075 7.71593 53.5376 7.84419C53.3672 7.97369 53.2154 8.13217 53.0817 8.32086L50.6843 11.7439H49.3699V8.99054ZM60.0624 8.99054C60.0624 8.61438 59.9255 8.29619 59.6518 8.03782C59.3794 7.78006 59.026 7.65118 58.5931 7.65118C58.1601 7.65118 57.8068 7.78068 57.5337 8.03782C57.4016 8.15903 57.2968 8.30657 57.2263 8.47077C57.1557 8.63497 57.121 8.8121 57.1244 8.99054V17.0279C57.1244 17.4047 57.2606 17.7222 57.5337 17.98C57.8068 18.239 58.1601 18.3673 58.5931 18.3673C59.026 18.3673 59.3794 18.2384 59.6525 17.98C59.9255 17.7222 60.0624 17.4047 60.0624 17.0279V8.99054ZM61.686 15.8372C61.6032 15.9463 61.5056 16.0881 61.3923 16.2614C61.2785 16.4353 61.2219 16.6906 61.2219 17.0279C61.2219 17.3652 61.3507 17.6482 61.6088 17.8764C61.8663 18.1046 62.2271 18.2186 62.6912 18.2186H68.7998C69.2638 18.2186 69.6246 18.1046 69.8822 17.8764C70.1397 17.6482 70.2691 17.3646 70.2691 17.0279C70.2691 16.6906 70.1397 16.4076 69.8822 16.1794C69.6246 15.9512 69.2638 15.8372 68.7998 15.8372H65.2429V15.6885L69.6501 10.1813C69.7329 10.0721 69.8305 9.93092 69.9437 9.75703C70.0576 9.58375 70.1142 9.32846 70.1142 8.99054C70.1167 8.82967 70.0833 8.67025 70.0165 8.52367C69.9496 8.37708 69.8508 8.24697 69.7273 8.14265C69.4697 7.91449 69.1089 7.79979 68.6449 7.79979H62.8455C62.3814 7.79979 62.02 7.91449 61.7625 8.14265C61.639 8.24703 61.5404 8.37717 61.4736 8.52375C61.4068 8.67033 61.3736 8.82972 61.3762 8.99054C61.3762 9.32846 61.5049 9.61088 61.7618 9.83904C62.02 10.0672 62.3814 10.1813 62.8455 10.1813H66.0926V10.3305L61.6853 15.8372H61.686Z" fill="#23282B"/>
<path fill-rule="evenodd" clip-rule="evenodd" d="M0 13C0 5.8203 5.86142 0 13.0919 0H66.9082C74.1386 0 80 5.8203 80 13C80 20.1797 74.1386 26 66.9082 26H13.0919C5.86142 26 0 20.1797 0 13ZM13.0919 2.87747C7.46183 2.87747 2.8978 7.40948 2.8978 13C2.8978 18.5905 7.46183 23.1225 13.0919 23.1225H66.9082C72.5382 23.1225 77.1022 18.5905 77.1022 13C77.1022 7.40948 72.5382 2.87747 66.9082 2.87747H13.0919Z" fill="#23282B"/>
</svg>
